<svg width="24" height="25" viewBox="0 0 24 25" fill="none" xmlns="http://www.w3.org/2000/svg">
<path d="M23.25 23C23.25 23.3315 23.1183 23.6495 22.8839 23.8839C22.6495 24.1183 22.3315 24.25 22 24.25H2C1.66848 24.25 1.35054 24.1183 1.11612 23.8839C0.881696 23.6495 0.75 23.3315 0.75 23V9.8625C0.749868 9.67202 0.793271 9.48403 0.876895 9.31288C0.960519 9.14173 1.08215 8.99196 1.2325 8.875L11.2325 1.09625C11.4519 0.92556 11.722 0.832886 12 0.832886C12.278 0.832886 12.5481 0.92556 12.7675 1.09625L22.7675 8.875C22.9179 8.99196 23.0395 9.14173 23.1231 9.31288C23.2067 9.48403 23.2501 9.67202 23.25 9.8625V23Z" fill="#C5F4CB"/>
</svg>
