<svg width="26" height="26" viewBox="0 0 26 26" fill="none" xmlns="http://www.w3.org/2000/svg">
<path d="M24.25 24.25L16.75 16.75M1.75 10.5C1.75 11.6491 1.97633 12.7869 2.41605 13.8485C2.85578 14.9101 3.5003 15.8747 4.31282 16.6872C5.12533 17.4997 6.08992 18.1442 7.15152 18.5839C8.21312 19.0237 9.35093 19.25 10.5 19.25C11.6491 19.25 12.7869 19.0237 13.8485 18.5839C14.9101 18.1442 15.8747 17.4997 16.6872 16.6872C17.4997 15.8747 18.1442 14.9101 18.5839 13.8485C19.0237 12.7869 19.25 11.6491 19.25 10.5C19.25 9.35093 19.0237 8.21312 18.5839 7.15152C18.1442 6.08992 17.4997 5.12533 16.6872 4.31282C15.8747 3.5003 14.9101 2.85578 13.8485 2.41605C12.7869 1.97633 11.6491 1.75 10.5 1.75C9.35093 1.75 8.21312 1.97633 7.15152 2.41605C6.08992 2.85578 5.12533 3.5003 4.31282 4.31282C3.5003 5.12533 2.85578 6.08992 2.41605 7.15152C1.97633 8.21312 1.75 9.35093 1.75 10.5Z" stroke="#C5F4CB" stroke-width="2" stroke-linecap="round" stroke-linejoin="round"/>
</svg>
