<svg width="16" height="23" viewBox="0 0 16 23" fill="none" xmlns="http://www.w3.org/2000/svg">
<path fill-rule="evenodd" clip-rule="evenodd" d="M3.42857 0C2.51926 0 1.64719 0.363491 1.00421 1.01051C0.361224 1.65753 0 2.53507 0 3.45009V21.8506C0.000103965 22.0465 0.0499647 22.2392 0.144851 22.4103C0.239737 22.5815 0.3765 22.7253 0.542165 22.8283C0.70783 22.9313 0.8969 22.99 1.09144 22.9988C1.28597 23.0077 1.47952 22.9663 1.65371 22.8787L8 19.6862L14.3463 22.8787C14.5205 22.9663 14.714 23.0077 14.9086 22.9988C15.1031 22.99 15.2922 22.9313 15.4578 22.8283C15.6235 22.7253 15.7603 22.5815 15.8552 22.4103C15.95 22.2392 15.9999 22.0465 16 21.8506V3.45009C16 2.53507 15.6388 1.65753 14.9958 1.01051C14.3528 0.363491 13.4807 0 12.5714 0H3.42857Z" fill="url(#paint0_linear_41_210)"/>
<defs>
<linearGradient id="paint0_linear_41_210" x1="8" y1="0" x2="8" y2="23" gradientUnits="userSpaceOnUse">
<stop stop-color="#49A078" stop-opacity="0.36"/>
<stop offset="1" stop-color="#216869"/>
</linearGradient>
</defs>
</svg>
