<svg width="34" height="40" viewBox="0 0 34 40" fill="none" xmlns="http://www.w3.org/2000/svg">
<path d="M34 20C34.0013 20.5223 33.8667 21.0361 33.6095 21.4914C33.3522 21.9466 32.9809 22.3278 32.5318 22.598L4.69818 39.5471C4.22892 39.8332 3.69145 39.9893 3.14129 39.9995C2.59113 40.0096 2.04822 39.8734 1.56864 39.6048C1.09362 39.3405 0.69792 38.9549 0.422226 38.4878C0.146531 38.0207 0.000793702 37.489 0 36.9473V3.05274C0.000793702 2.511 0.146531 1.97926 0.422226 1.51218C0.69792 1.0451 1.09362 0.659548 1.56864 0.395172C2.04822 0.126624 2.59113 -0.00961402 3.14129 0.000527564C3.69145 0.0106691 4.22892 0.166823 4.69818 0.452861L32.5318 17.402C32.9809 17.6722 33.3522 18.0534 33.6095 18.5086C33.8667 18.9639 34.0013 19.4777 34 20Z" fill="url(#paint0_linear_41_202)"/>
<defs>
<linearGradient id="paint0_linear_41_202" x1="17" y1="0" x2="17" y2="40" gradientUnits="userSpaceOnUse">
<stop stop-color="#49A078" stop-opacity="0.36"/>
<stop offset="1" stop-color="#216869"/>
</linearGradient>
</defs>
</svg>
