<svg width="20" height="23" viewBox="0 0 20 23" fill="none" xmlns="http://www.w3.org/2000/svg">
<path fill-rule="evenodd" clip-rule="evenodd" d="M12.1212 3.83296C12.1212 1.71696 13.8859 1.1042e-05 16.06 1.1042e-05C16.5762 -0.00119857 17.0875 0.0969843 17.5649 0.288954C18.0422 0.480923 18.4762 0.762919 18.8421 1.11884C19.208 1.47476 19.4985 1.89764 19.6972 2.36333C19.8959 2.82902 19.9988 3.3284 20 3.83296C20 5.95011 18.2353 7.66705 16.06 7.66705C15.5383 7.66768 15.0217 7.56695 14.5403 7.37071C14.0588 7.17448 13.622 6.88665 13.2553 6.52396L7.80235 10.1534C7.95422 10.8928 7.87974 11.6596 7.58824 12.3579L13.5671 16.1989C14.2713 15.6375 15.1525 15.3315 16.0612 15.3329C16.5774 15.3319 17.0887 15.4302 17.566 15.6223C18.0433 15.8144 18.4772 16.0966 18.8429 16.4526C19.2087 16.8086 19.4991 17.2316 19.6977 17.6973C19.8962 18.1631 19.9989 18.6625 20 19.167C20 21.283 18.2353 23 16.06 23C15.0177 23.0021 14.0173 22.5995 13.2787 21.8808C12.54 21.162 12.1237 20.1858 12.1212 19.167C12.1203 18.6296 12.2362 18.098 12.4612 17.6076L6.52941 13.8C5.81107 14.4105 4.89073 14.746 3.93882 14.7441C3.42261 14.7454 2.91121 14.6471 2.43384 14.4551C1.95648 14.263 1.5225 13.9809 1.15672 13.6248C0.790935 13.2688 0.500508 12.8458 0.302033 12.3799C0.103558 11.9141 0.000925853 11.4147 0 10.9101C0.0010802 10.4055 0.103827 9.90619 0.30237 9.44051C0.500914 8.97483 0.791365 8.55194 1.15713 8.196C1.5229 7.84007 1.95683 7.55805 2.43411 7.36607C2.9114 7.17409 3.42271 7.0759 3.93882 7.07711C5.19059 7.07711 6.30353 7.64405 7.02471 8.52725L12.3106 5.00941C12.1848 4.62937 12.1209 4.23238 12.1212 3.83296Z" fill="url(#paint0_linear_41_208)"/>
<defs>
<linearGradient id="paint0_linear_41_208" x1="10" y1="0" x2="10" y2="23" gradientUnits="userSpaceOnUse">
<stop stop-color="#49A078" stop-opacity="0.36"/>
<stop offset="1" stop-color="#216869"/>
</linearGradient>
</defs>
</svg>
